<mxfile host="app.diagrams.net" modified="2023-05-20T11:58:31.649Z" agent="Mozilla/5.0 (X11; Linux x86_64) AppleWebKit/537.36 (KHTML, like Gecko) Chrome/110.0.0.0 Safari/537.36" etag="iMml3XVuZcfxLwm9Gh0Y" version="21.3.2" type="device">
  <diagram name="Страница 1" id="yTcbJNipRGSvZlC4M1_E">
    <mxGraphModel dx="978" dy="530" grid="1" gridSize="10" guides="1" tooltips="1" connect="1" arrows="1" fold="1" page="1" pageScale="1" pageWidth="450" pageHeight="300" math="0" shadow="0">
      <root>
        <mxCell id="0" />
        <mxCell id="1" parent="0" />
        <mxCell id="pY6uirZQGiosRANmVs8t-1" value="" style="sketch=0;pointerEvents=1;shadow=0;dashed=0;html=1;strokeColor=none;fillColor=#434445;aspect=fixed;labelPosition=center;verticalLabelPosition=bottom;verticalAlign=top;align=center;outlineConnect=0;shape=mxgraph.vvd.virtual_machine;" vertex="1" parent="1">
          <mxGeometry x="85" y="10" width="60" height="60" as="geometry" />
        </mxCell>
        <mxCell id="pY6uirZQGiosRANmVs8t-3" value="" style="sketch=0;pointerEvents=1;shadow=0;dashed=0;html=1;strokeColor=none;fillColor=#434445;aspect=fixed;labelPosition=center;verticalLabelPosition=bottom;verticalAlign=top;align=center;outlineConnect=0;shape=mxgraph.vvd.laptop;" vertex="1" parent="1">
          <mxGeometry x="185" y="180" width="83.33" height="60" as="geometry" />
        </mxCell>
        <mxCell id="pY6uirZQGiosRANmVs8t-4" value="" style="sketch=0;pointerEvents=1;shadow=0;dashed=0;html=1;strokeColor=none;fillColor=#434445;aspect=fixed;labelPosition=center;verticalLabelPosition=bottom;verticalAlign=top;align=center;outlineConnect=0;shape=mxgraph.vvd.virtual_machine;" vertex="1" parent="1">
          <mxGeometry x="305" y="10" width="60" height="60" as="geometry" />
        </mxCell>
        <mxCell id="pY6uirZQGiosRANmVs8t-5" value="&lt;font style=&quot;font-size: 16px;&quot; face=&quot;Times New Roman&quot;&gt;Хост&lt;/font&gt;" style="text;html=1;strokeColor=none;fillColor=none;align=center;verticalAlign=middle;whiteSpace=wrap;rounded=0;" vertex="1" parent="1">
          <mxGeometry x="196.66" y="260" width="60" height="30" as="geometry" />
        </mxCell>
        <mxCell id="pY6uirZQGiosRANmVs8t-6" value="&lt;font style=&quot;font-size: 16px;&quot; face=&quot;Times New Roman&quot;&gt;Виртуальная машина&lt;br&gt;c модулем zram &lt;br&gt;без оптимизации&lt;/font&gt;" style="text;html=1;strokeColor=none;fillColor=none;align=center;verticalAlign=middle;whiteSpace=wrap;rounded=0;" vertex="1" parent="1">
          <mxGeometry x="20" y="90" width="190" height="30" as="geometry" />
        </mxCell>
        <mxCell id="pY6uirZQGiosRANmVs8t-8" value="&lt;font style=&quot;font-size: 16px;&quot; face=&quot;Times New Roman&quot;&gt;Виртуальная машина&lt;br&gt;c модулем zram с&amp;nbsp;оптимизацией&lt;/font&gt;" style="text;html=1;strokeColor=none;fillColor=none;align=center;verticalAlign=middle;whiteSpace=wrap;rounded=0;" vertex="1" parent="1">
          <mxGeometry x="240" y="90" width="190" height="30" as="geometry" />
        </mxCell>
        <mxCell id="pY6uirZQGiosRANmVs8t-9" value="" style="endArrow=classic;startArrow=classic;html=1;rounded=0;" edge="1" parent="1">
          <mxGeometry width="50" height="50" relative="1" as="geometry">
            <mxPoint x="115" y="140" as="sourcePoint" />
            <mxPoint x="175" y="210" as="targetPoint" />
            <Array as="points">
              <mxPoint x="115" y="210" />
            </Array>
          </mxGeometry>
        </mxCell>
        <mxCell id="pY6uirZQGiosRANmVs8t-10" value="" style="endArrow=classic;startArrow=classic;html=1;rounded=0;" edge="1" parent="1">
          <mxGeometry width="50" height="50" relative="1" as="geometry">
            <mxPoint x="285" y="210" as="sourcePoint" />
            <mxPoint x="335" y="140" as="targetPoint" />
            <Array as="points">
              <mxPoint x="335" y="210" />
            </Array>
          </mxGeometry>
        </mxCell>
      </root>
    </mxGraphModel>
  </diagram>
</mxfile>
